<?xml version="1.0" ?><svg height="64" viewBox="0 0 64 64" width="64" xmlns="http://www.w3.org/2000/svg"><defs><style>.cls-1{fill:none;stroke:#000;stroke-linejoin:round;stroke-width:2px;}</style></defs><title/><g data-name="22-SEO Monitoring" id="_22-SEO_Monitoring"><rect class="cls-1" height="62" rx="2" ry="2" width="62" x="1" y="1"/><line class="cls-1" x1="1" x2="63" y1="9" y2="9"/><line class="cls-1" x1="4" x2="6" y1="5" y2="5"/><line class="cls-1" x1="8" x2="10" y1="5" y2="5"/><line class="cls-1" x1="58" x2="60" y1="5" y2="5"/><polyline class="cls-1" points="9 13 5 13 5 17"/><polyline class="cls-1" points="55 59 59 59 59 55"/><path class="cls-1" d="M20,25V17a2,2,0,0,1,2-2H44a2,2,0,0,1,2,2V29"/><path class="cls-1" d="M20,49v6a2,2,0,0,0,2,2H44a2,2,0,0,0,2-2V39"/><line class="cls-1" x1="20" x2="46" y1="20" y2="20"/><line class="cls-1" x1="20" x2="46" y1="52" y2="52"/><polyline class="cls-1" points="9 53 16 46 27 46 34 39 42 39 58 23"/><polyline class="cls-1" points="51 23 58 23 58 30"/><rect class="cls-1" height="4" width="17" x="7" y="28"/><line class="cls-1" x1="6" x2="17" y1="36" y2="36"/><line class="cls-1" x1="25" x2="23" y1="36" y2="36"/><line class="cls-1" x1="21" x2="19" y1="36" y2="36"/><path class="cls-1" d="M27,28h9a.979.979,0,0,1,1,1v6"/><line class="cls-1" x1="20" x2="20" y1="39" y2="43"/></g></svg>