<?xml version="1.0" encoding="utf-8"?>
<!-- Generator: Adobe Illustrator 16.0.0, SVG Export Plug-In . SVG Version: 6.00 Build 0)  -->
<!DOCTYPE svg PUBLIC "-//W3C//DTD SVG 1.1//EN" "http://www.w3.org/Graphics/SVG/1.1/DTD/svg11.dtd">
<svg version="1.1" id="fill" xmlns="http://www.w3.org/2000/svg" xmlns:xlink="http://www.w3.org/1999/xlink" x="0px" y="0px"
	 width="16px" height="16px" viewBox="0 0 16 16" enable-background="new 0 0 16 16" xml:space="preserve">
<path fill="#D9DAE2" d="M1.73,1.25h12.54c0.541,0,0.98,0.439,0.98,0.98v8.04c0,0.541-0.439,0.98-0.98,0.98H1.73
	c-0.541,0-0.98-0.439-0.98-0.98V2.23C0.75,1.689,1.189,1.25,1.73,1.25z"/>
<path fill="#CFCFD9" d="M14.666,1.334c0.055,0.125,0.084,0.259,0.084,0.396v8.04c0,0.541-0.439,0.98-0.98,0.98H1.23
	c-0.136,0-0.271-0.029-0.396-0.084c0.156,0.354,0.508,0.584,0.896,0.584h12.54c0.541,0,0.98-0.439,0.98-0.98V2.23
	C15.25,1.842,15.021,1.491,14.666,1.334z"/>
<path fill="#E5E6EB" d="M1.75,8.25h12.5l0,0v1.731c0,0.148-0.12,0.269-0.269,0.269l0,0H2.019c-0.148,0-0.269-0.12-0.269-0.269l0,0
	V8.25L1.75,8.25z"/>
<path fill="#CFCFD9" d="M13.75,8.25v1.231c0,0.148-0.12,0.269-0.269,0.269l0,0H1.75v0.231c0,0.148,0.12,0.269,0.269,0.269l0,0
	h11.963c0.148,0,0.269-0.12,0.269-0.269l0,0V8.25H13.75z"/>
<path fill="#FF0000" d="M2.046,2.25h11.908c0.163,0,0.296,0.132,0.296,0.296V7.25l0,0H1.75l0,0V2.546
	C1.75,2.382,1.882,2.25,2.046,2.25z"/>
<path fill="#E5E6EB" d="M9.75,13.5v-2.25h-1v2.25h-1.5v-2.25h-1v2.25h-1C5.112,13.5,5,13.611,5,13.75v0.75
	c0,0.139,0.112,0.25,0.25,0.25h5.5c0.139,0,0.25-0.111,0.25-0.25v-0.75c0-0.139-0.111-0.25-0.25-0.25H9.75z"/>
<path fill="#CFCFD9" d="M5,14.25h6l0,0v0.266c0,0.129-0.105,0.234-0.234,0.234H5.234C5.105,14.75,5,14.645,5,14.516V14.25L5,14.25z"
	/>
<polygon fill="#CFCFD9" points="7.25,13.5 7.25,11.25 6.25,11.25 "/>
<polygon fill="#CFCFD9" points="9.75,13.5 9.75,11.25 8.75,11.25 "/>
<polygon fill="#FFFFFF" points="2.5,5 2.5,3 4.5,3 "/>
<polygon fill="#FFFFFF" points="2.5,9.25 2.5,8.25 3.5,8.25 "/>
<path d="M14.27,1H1.73C1.051,1,0.5,1.551,0.5,2.23v8.04c0,0.68,0.551,1.23,1.23,1.23H6v1.75H5c-0.138,0-0.25,0.111-0.25,0.25v1.25
	C4.75,14.889,4.862,15,5,15h6c0.139,0,0.25-0.111,0.25-0.25V13.5c0-0.139-0.111-0.25-0.25-0.25h-1V11.5h4.27
	c0.68,0,1.23-0.551,1.23-1.23V2.23C15.5,1.551,14.949,1,14.27,1z M9.75,13.75h1v0.75h-5.5v-0.75h1c0.138,0,0.25-0.111,0.25-0.25v-2
	H7v2c0,0.139,0.112,0.25,0.25,0.25h1.5C8.889,13.75,9,13.639,9,13.5v-2h0.5v2C9.5,13.639,9.611,13.75,9.75,13.75z M7.5,11.5h1v1.75
	h-1V11.5z M15,10.27c0,0.403-0.327,0.73-0.73,0.73H1.73C1.327,11,1,10.673,1,10.27V2.23C1,1.827,1.327,1.5,1.73,1.5h12.54
	C14.673,1.5,15,1.827,15,2.23V10.27z"/>
<path d="M14.25,8H1.75C1.612,8,1.5,8.112,1.5,8.25v1.731c0,0.286,0.232,0.519,0.519,0.519h11.963c0.286,0,0.519-0.232,0.519-0.519
	V8.25C14.5,8.112,14.389,8,14.25,8z M14,9.981C14,9.992,13.992,10,13.981,10l0,0H2.019C2.008,10,2,9.992,2,9.981l0,0V8.5h12V9.981z"
	/>
<g>
	<path fill="#FFFFFF" d="M7.271,6.268C7.063,6.442,6.719,6.529,6.242,6.529H4.964V3.295h1.192c0.311,0,0.609,0.058,0.894,0.172
		c0.286,0.115,0.428,0.344,0.428,0.688c0,0.188-0.056,0.331-0.167,0.43C7.199,4.683,7.068,4.761,6.917,4.818
		c0.266,0.047,0.444,0.137,0.534,0.27c0.09,0.133,0.135,0.291,0.135,0.473C7.586,5.857,7.481,6.093,7.271,6.268z M6.751,3.818
		C6.656,3.74,6.494,3.693,6.265,3.678H5.546v0.984h0.63c0.295,0,0.488-0.054,0.581-0.163c0.092-0.109,0.138-0.218,0.138-0.33
		C6.896,4.014,6.847,3.896,6.751,3.818z M6.813,5.162C6.686,5.084,6.5,5.045,6.253,5.045H5.546v1.102h0.805
		c0.181,0,0.335-0.04,0.462-0.121C6.94,5.945,7.003,5.8,7.003,5.592C7.003,5.384,6.94,5.24,6.813,5.162z"/>
	<path fill="#FFFFFF" d="M11.438,6.529v-2.82l-0.979,2.82H9.87l-0.979-2.82v2.82H8.309V3.295h0.992l0.896,2.734l0.896-2.734h0.928
		v3.234H11.438z"/>
</g>
</svg>
